<?xml version="1.0" encoding="UTF-8" standalone="no" ?>
<!DOCTYPE svg PUBLIC "-//W3C//DTD SVG 1.1//EN" "http://www.w3.org/Graphics/SVG/1.1/DTD/svg11.dtd">
<svg xmlns="http://www.w3.org/2000/svg" xmlns:xlink="http://www.w3.org/1999/xlink" version="1.1" width="300" height="300" viewBox="0 0 300 300" xml:space="preserve">
<defs>
<pattern id="Pattern" x="0" y="0" width=".5" height=".05">
    <circle cx="10" cy="5" r="5" style="fill:#0ad1ab"/>
	<circle cx="25" cy="5" r="5" style="fill:#0ad1ab"/>
</pattern>
</defs>
    <rect
       style="fill:#008000"
       width="128"
       height="320"
       x="16"
       y="16" />
    <rect
       style="fill:#808080"
       width="32"
       height="32"
       x="64"
       y="16" />
	<rect fill="url(#Pattern)" stroke="none" width="30" height="240" x="105" y="25"/>
	<circle cx="115" cy="30" r="5" style="fill:#eaa02e"/>
	<circle cx="130" cy="30" r="5" style="fill:#d10a30"/>
	<circle cx="130" cy="42" r="5" style="fill:#d10a30"/>
	<circle cx="130" cy="54" r="5" style="fill:#808080"/>
	<circle cx="115" cy="78" r="5" style="fill:#808080"/>
	<circle cx="130" cy="102" r="5" style="fill:#808080"/>
	<circle cx="115" cy="126" r="5" style="fill:#eaa02e"/>
	<circle cx="130" cy="138" r="5" style="fill:#808080"/>
	<circle cx="115" cy="174" r="5" style="fill:#808080"/>
	<circle cx="115" cy="186" r="5" style="fill:#e4e63b"/>
	<circle cx="130" cy="186" r="5" style="fill:#e4e63b"/>
	<circle cx="130" cy="198" r="5" style="fill:#808080"/>
	<circle cx="130" cy="222" r="5" style="fill:#808080"/>
	<circle cx="115" cy="258" r="5" style="fill:#808080"/>
	
	<g style="fill:#ffffff; font-size:12px" transform="translate(-3,4)">
		<text x="115" y="30">1</text>
		<text x="130" y="30">2</text>
		<text x="115" y="42">3</text>
		<text x="130" y="42">4</text>
		<text x="115" y="54">5</text>
		<text x="130" y="54">6</text>
	</g>
	<g transform="translate(155,16)">
		<text x="0" y="30" style="fill:#eaa02e">3.3V</text>
		<text x="0" y="45" style="fill:#d10a30">5V</text>
		<text x="0" y="60" style="fill:#0ad1ab">GPIO</text>
		<text x="0" y="75" style="fill:#808080">Ground</text>
		<text x="0" y="90" style="fill:#e4e63b">I2C ID EEPROM</text>
	</g>
</svg>
